<?xml version="1.0" encoding="utf-8" standalone="no"?>
<!DOCTYPE svg PUBLIC "-//W3C//DTD SVG 1.1//EN"
  "http://www.w3.org/Graphics/SVG/1.1/DTD/svg11.dtd">
<svg xmlns:xlink="http://www.w3.org/1999/xlink" width="567.296438pt" height="209.98875pt" viewBox="0 0 567.296438 209.98875" xmlns="http://www.w3.org/2000/svg" version="1.1">
 <metadata>
  <rdf:RDF xmlns:dc="http://purl.org/dc/elements/1.1/" xmlns:cc="http://creativecommons.org/ns#" xmlns:rdf="http://www.w3.org/1999/02/22-rdf-syntax-ns#">
   <cc:Work>
    <dc:type rdf:resource="http://purl.org/dc/dcmitype/StillImage"/>
    <dc:date>2026-06-02T12:35:44.111834</dc:date>
    <dc:format>image/svg+xml</dc:format>
    <dc:creator>
     <cc:Agent>
      <dc:title>Matplotlib v3.10.8, https://matplotlib.org/</dc:title>
     </cc:Agent>
    </dc:creator>
   </cc:Work>
  </rdf:RDF>
 </metadata>
 <defs>
  <style type="text/css">*{stroke-linejoin: round; stroke-linecap: butt}</style>
 </defs>
 <g id="figure_1">
  <g id="patch_1">
   <path d="M 0 209.98875 
L 567.296438 209.98875 
L 567.296438 0 
L 0 0 
z
" style="fill: #ffffff"/>
  </g>
  <g id="axes_1">
   <g id="patch_2">
    <path d="M 58.401875 187.078437 
L 275.730875 187.078437 
L 275.730875 20.798437 
L 58.401875 20.798437 
z
" style="fill: #ffffff"/>
   </g>
   <g id="patch_3">
    <path d="M 68.280466 187.078437 
L 94.050703 187.078437 
L 94.050703 146.151205 
L 68.280466 146.151205 
z
" clip-path="url(#pdcd5889731)" style="fill: #2c7a4a; opacity: 0.85"/>
   </g>
   <g id="patch_4">
    <path d="M 111.230861 187.078437 
L 137.001098 187.078437 
L 137.001098 118.000198 
L 111.230861 118.000198 
z
" clip-path="url(#pdcd5889731)" style="fill: #2c7a4a; opacity: 0.85"/>
   </g>
   <g id="patch_5">
    <path d="M 154.181256 187.078437 
L 179.951494 187.078437 
L 179.951494 28.716533 
L 154.181256 28.716533 
z
" clip-path="url(#pdcd5889731)" style="fill: #2c7a4a; opacity: 0.85"/>
   </g>
   <g id="patch_6">
    <path d="M 197.131652 187.078437 
L 222.901889 187.078437 
L 222.901889 87.017434 
L 197.131652 87.017434 
z
" clip-path="url(#pdcd5889731)" style="fill: #2c7a4a; opacity: 0.85"/>
   </g>
   <g id="patch_7">
    <path d="M 240.082047 187.078437 
L 265.852284 187.078437 
L 265.852284 144.652039 
L 240.082047 144.652039 
z
" clip-path="url(#pdcd5889731)" style="fill: #2c7a4a; opacity: 0.85"/>
   </g>
   <g id="matplotlib.axis_1">
    <g id="xtick_1">
     <g id="line2d_1">
      <defs>
       <path id="md8f9617538" d="M 0 0 
L 0 3.5 
" style="stroke: #000000; stroke-width: 0.8"/>
      </defs>
      <g>
       <use xlink:href="#md8f9617538" x="81.165584" y="187.078437" style="stroke: #000000; stroke-width: 0.8"/>
      </g>
     </g>
     <g id="text_1">
      <!-- seed 1 -->
      <g transform="translate(66.355663 200.917031) scale(0.09 -0.09)">
       <defs>
        <path id="DejaVuSerif-73" d="M 359 184 
L 359 959 
L 691 959 
Q 703 588 923 403 
Q 1144 219 1575 219 
Q 1963 219 2166 364 
Q 2369 509 2369 788 
Q 2369 1006 2220 1140 
Q 2072 1275 1594 1428 
L 1178 1569 
Q 750 1706 558 1912 
Q 366 2119 366 2438 
Q 366 2894 700 3153 
Q 1034 3413 1625 3413 
Q 1888 3413 2178 3344 
Q 2469 3275 2778 3144 
L 2778 2419 
L 2447 2419 
Q 2434 2741 2221 2922 
Q 2009 3103 1644 3103 
Q 1281 3103 1095 2975 
Q 909 2847 909 2591 
Q 909 2381 1050 2254 
Q 1191 2128 1613 1997 
L 2069 1856 
Q 2541 1709 2748 1489 
Q 2956 1269 2956 922 
Q 2956 450 2595 179 
Q 2234 -91 1600 -91 
Q 1278 -91 972 -22 
Q 666 47 359 184 
z
" transform="scale(0.015625)"/>
        <path id="DejaVuSerif-65" d="M 3469 1600 
L 991 1600 
L 991 1575 
Q 991 903 1244 561 
Q 1497 219 1991 219 
Q 2369 219 2611 417 
Q 2853 616 2950 1006 
L 3413 1006 
Q 3275 459 2904 184 
Q 2534 -91 1931 -91 
Q 1203 -91 761 389 
Q 319 869 319 1663 
Q 319 2450 753 2931 
Q 1188 3413 1894 3413 
Q 2647 3413 3050 2948 
Q 3453 2484 3469 1600 
z
M 2791 1931 
Q 2772 2513 2545 2808 
Q 2319 3103 1894 3103 
Q 1497 3103 1269 2806 
Q 1041 2509 991 1931 
L 2791 1931 
z
" transform="scale(0.015625)"/>
        <path id="DejaVuSerif-64" d="M 3359 331 
L 3909 331 
L 3909 0 
L 2784 0 
L 2784 519 
Q 2616 206 2355 57 
Q 2094 -91 1709 -91 
Q 1097 -91 708 395 
Q 319 881 319 1663 
Q 319 2444 706 2928 
Q 1094 3413 1709 3413 
Q 2094 3413 2355 3264 
Q 2616 3116 2784 2803 
L 2784 4531 
L 2241 4531 
L 2241 4863 
L 3359 4863 
L 3359 331 
z
M 2784 1497 
L 2784 1825 
Q 2784 2422 2554 2737 
Q 2325 3053 1888 3053 
Q 1444 3053 1217 2703 
Q 991 2353 991 1663 
Q 991 975 1217 622 
Q 1444 269 1888 269 
Q 2325 269 2554 583 
Q 2784 897 2784 1497 
z
" transform="scale(0.015625)"/>
        <path id="DejaVuSerif-20" transform="scale(0.015625)"/>
        <path id="DejaVuSerif-31" d="M 909 0 
L 909 331 
L 1722 331 
L 1722 4213 
L 781 3603 
L 781 4013 
L 1919 4750 
L 2350 4750 
L 2350 331 
L 3163 331 
L 3163 0 
L 909 0 
z
" transform="scale(0.015625)"/>
       </defs>
       <use xlink:href="#DejaVuSerif-73"/>
       <use xlink:href="#DejaVuSerif-65" transform="translate(51.318359 0)"/>
       <use xlink:href="#DejaVuSerif-65" transform="translate(110.498047 0)"/>
       <use xlink:href="#DejaVuSerif-64" transform="translate(169.677734 0)"/>
       <use xlink:href="#DejaVuSerif-20" transform="translate(233.691406 0)"/>
       <use xlink:href="#DejaVuSerif-31" transform="translate(265.478516 0)"/>
      </g>
     </g>
    </g>
    <g id="xtick_2">
     <g id="line2d_2">
      <g>
       <use xlink:href="#md8f9617538" x="124.11598" y="187.078437" style="stroke: #000000; stroke-width: 0.8"/>
      </g>
     </g>
     <g id="text_2">
      <!-- seed 2 -->
      <g transform="translate(109.306058 200.917031) scale(0.09 -0.09)">
       <defs>
        <path id="DejaVuSerif-32" d="M 819 3553 
L 469 3553 
L 469 4384 
Q 803 4563 1142 4656 
Q 1481 4750 1806 4750 
Q 2534 4750 2956 4397 
Q 3378 4044 3378 3438 
Q 3378 2753 2422 1800 
Q 2347 1728 2309 1691 
L 1131 513 
L 3078 513 
L 3078 1088 
L 3444 1088 
L 3444 0 
L 434 0 
L 434 341 
L 1850 1753 
Q 2319 2222 2519 2614 
Q 2719 3006 2719 3438 
Q 2719 3909 2473 4175 
Q 2228 4441 1797 4441 
Q 1350 4441 1106 4219 
Q 863 3997 819 3553 
z
" transform="scale(0.015625)"/>
       </defs>
       <use xlink:href="#DejaVuSerif-73"/>
       <use xlink:href="#DejaVuSerif-65" transform="translate(51.318359 0)"/>
       <use xlink:href="#DejaVuSerif-65" transform="translate(110.498047 0)"/>
       <use xlink:href="#DejaVuSerif-64" transform="translate(169.677734 0)"/>
       <use xlink:href="#DejaVuSerif-20" transform="translate(233.691406 0)"/>
       <use xlink:href="#DejaVuSerif-32" transform="translate(265.478516 0)"/>
      </g>
     </g>
    </g>
    <g id="xtick_3">
     <g id="line2d_3">
      <g>
       <use xlink:href="#md8f9617538" x="167.066375" y="187.078437" style="stroke: #000000; stroke-width: 0.8"/>
      </g>
     </g>
     <g id="text_3">
      <!-- seed 3 -->
      <g transform="translate(152.256453 200.917031) scale(0.09 -0.09)">
       <defs>
        <path id="DejaVuSerif-33" d="M 622 4469 
Q 988 4606 1323 4678 
Q 1659 4750 1953 4750 
Q 2638 4750 3022 4454 
Q 3406 4159 3406 3634 
Q 3406 3213 3140 2930 
Q 2875 2647 2388 2547 
Q 2963 2466 3280 2130 
Q 3597 1794 3597 1259 
Q 3597 606 3158 257 
Q 2719 -91 1894 -91 
Q 1528 -91 1179 -12 
Q 831 66 488 225 
L 488 1131 
L 838 1131 
Q 869 681 1141 450 
Q 1413 219 1906 219 
Q 2384 219 2661 495 
Q 2938 772 2938 1253 
Q 2938 1803 2653 2086 
Q 2369 2369 1819 2369 
L 1522 2369 
L 1522 2688 
L 1678 2688 
Q 2225 2688 2498 2914 
Q 2772 3141 2772 3597 
Q 2772 4006 2547 4223 
Q 2322 4441 1900 4441 
Q 1478 4441 1245 4241 
Q 1013 4041 972 3647 
L 622 3647 
L 622 4469 
z
" transform="scale(0.015625)"/>
       </defs>
       <use xlink:href="#DejaVuSerif-73"/>
       <use xlink:href="#DejaVuSerif-65" transform="translate(51.318359 0)"/>
       <use xlink:href="#DejaVuSerif-65" transform="translate(110.498047 0)"/>
       <use xlink:href="#DejaVuSerif-64" transform="translate(169.677734 0)"/>
       <use xlink:href="#DejaVuSerif-20" transform="translate(233.691406 0)"/>
       <use xlink:href="#DejaVuSerif-33" transform="translate(265.478516 0)"/>
      </g>
     </g>
    </g>
    <g id="xtick_4">
     <g id="line2d_4">
      <g>
       <use xlink:href="#md8f9617538" x="210.01677" y="187.078437" style="stroke: #000000; stroke-width: 0.8"/>
      </g>
     </g>
     <g id="text_4">
      <!-- seed 4 -->
      <g transform="translate(195.206848 200.917031) scale(0.09 -0.09)">
       <defs>
        <path id="DejaVuSerif-34" d="M 2234 1581 
L 2234 4063 
L 641 1581 
L 2234 1581 
z
M 3609 0 
L 1484 0 
L 1484 331 
L 2234 331 
L 2234 1247 
L 197 1247 
L 197 1588 
L 2241 4750 
L 2859 4750 
L 2859 1581 
L 3750 1581 
L 3750 1247 
L 2859 1247 
L 2859 331 
L 3609 331 
L 3609 0 
z
" transform="scale(0.015625)"/>
       </defs>
       <use xlink:href="#DejaVuSerif-73"/>
       <use xlink:href="#DejaVuSerif-65" transform="translate(51.318359 0)"/>
       <use xlink:href="#DejaVuSerif-65" transform="translate(110.498047 0)"/>
       <use xlink:href="#DejaVuSerif-64" transform="translate(169.677734 0)"/>
       <use xlink:href="#DejaVuSerif-20" transform="translate(233.691406 0)"/>
       <use xlink:href="#DejaVuSerif-34" transform="translate(265.478516 0)"/>
      </g>
     </g>
    </g>
    <g id="xtick_5">
     <g id="line2d_5">
      <g>
       <use xlink:href="#md8f9617538" x="252.967166" y="187.078437" style="stroke: #000000; stroke-width: 0.8"/>
      </g>
     </g>
     <g id="text_5">
      <!-- seed 5 -->
      <g transform="translate(238.157244 200.917031) scale(0.09 -0.09)">
       <defs>
        <path id="DejaVuSerif-35" d="M 3219 4666 
L 3219 4153 
L 1081 4153 
L 1081 2816 
Q 1244 2928 1461 2984 
Q 1678 3041 1947 3041 
Q 2703 3041 3140 2622 
Q 3578 2203 3578 1478 
Q 3578 738 3136 323 
Q 2694 -91 1894 -91 
Q 1572 -91 1234 -12 
Q 897 66 544 225 
L 544 1131 
L 897 1131 
Q 925 688 1179 453 
Q 1434 219 1894 219 
Q 2388 219 2653 544 
Q 2919 869 2919 1478 
Q 2919 2084 2655 2407 
Q 2391 2731 1894 2731 
Q 1613 2731 1398 2631 
Q 1184 2531 1019 2322 
L 750 2322 
L 750 4666 
L 3219 4666 
z
" transform="scale(0.015625)"/>
       </defs>
       <use xlink:href="#DejaVuSerif-73"/>
       <use xlink:href="#DejaVuSerif-65" transform="translate(51.318359 0)"/>
       <use xlink:href="#DejaVuSerif-65" transform="translate(110.498047 0)"/>
       <use xlink:href="#DejaVuSerif-64" transform="translate(169.677734 0)"/>
       <use xlink:href="#DejaVuSerif-20" transform="translate(233.691406 0)"/>
       <use xlink:href="#DejaVuSerif-35" transform="translate(265.478516 0)"/>
      </g>
     </g>
    </g>
   </g>
   <g id="matplotlib.axis_2">
    <g id="ytick_1">
     <g id="line2d_6">
      <path d="M 58.401875 187.078437 
L 275.730875 187.078437 
" clip-path="url(#pdcd5889731)" style="fill: none; stroke: #b0b0b0; stroke-opacity: 0.2; stroke-width: 0.8; stroke-linecap: square"/>
     </g>
     <g id="line2d_7">
      <defs>
       <path id="mabeaafa1ce" d="M 0 0 
L -3.5 0 
" style="stroke: #000000; stroke-width: 0.8"/>
      </defs>
      <g>
       <use xlink:href="#mabeaafa1ce" x="58.401875" y="187.078437" style="stroke: #000000; stroke-width: 0.8"/>
      </g>
     </g>
     <g id="text_6">
      <!-- 0.0000 -->
      <g transform="translate(19.910313 190.497734) scale(0.09 -0.09)">
       <defs>
        <path id="DejaVuSerif-30" d="M 2034 219 
Q 2513 219 2750 744 
Q 2988 1269 2988 2328 
Q 2988 3391 2750 3916 
Q 2513 4441 2034 4441 
Q 1556 4441 1318 3916 
Q 1081 3391 1081 2328 
Q 1081 1269 1318 744 
Q 1556 219 2034 219 
z
M 2034 -91 
Q 1275 -91 848 546 
Q 422 1184 422 2328 
Q 422 3475 848 4112 
Q 1275 4750 2034 4750 
Q 2797 4750 3222 4112 
Q 3647 3475 3647 2328 
Q 3647 1184 3222 546 
Q 2797 -91 2034 -91 
z
" transform="scale(0.015625)"/>
        <path id="DejaVuSerif-2e" d="M 603 325 
Q 603 500 722 622 
Q 841 744 1019 744 
Q 1191 744 1312 622 
Q 1434 500 1434 325 
Q 1434 153 1312 31 
Q 1191 -91 1019 -91 
Q 841 -91 722 29 
Q 603 150 603 325 
z
" transform="scale(0.015625)"/>
       </defs>
       <use xlink:href="#DejaVuSerif-30"/>
       <use xlink:href="#DejaVuSerif-2e" transform="translate(63.623047 0)"/>
       <use xlink:href="#DejaVuSerif-30" transform="translate(95.410156 0)"/>
       <use xlink:href="#DejaVuSerif-30" transform="translate(159.033203 0)"/>
       <use xlink:href="#DejaVuSerif-30" transform="translate(222.65625 0)"/>
       <use xlink:href="#DejaVuSerif-30" transform="translate(286.279297 0)"/>
      </g>
     </g>
    </g>
    <g id="ytick_2">
     <g id="line2d_8">
      <path d="M 58.401875 153.763637 
L 275.730875 153.763637 
" clip-path="url(#pdcd5889731)" style="fill: none; stroke: #b0b0b0; stroke-opacity: 0.2; stroke-width: 0.8; stroke-linecap: square"/>
     </g>
     <g id="line2d_9">
      <g>
       <use xlink:href="#mabeaafa1ce" x="58.401875" y="153.763637" style="stroke: #000000; stroke-width: 0.8"/>
      </g>
     </g>
     <g id="text_7">
      <!-- 0.0002 -->
      <g transform="translate(19.910313 157.182934) scale(0.09 -0.09)">
       <use xlink:href="#DejaVuSerif-30"/>
       <use xlink:href="#DejaVuSerif-2e" transform="translate(63.623047 0)"/>
       <use xlink:href="#DejaVuSerif-30" transform="translate(95.410156 0)"/>
       <use xlink:href="#DejaVuSerif-30" transform="translate(159.033203 0)"/>
       <use xlink:href="#DejaVuSerif-30" transform="translate(222.65625 0)"/>
       <use xlink:href="#DejaVuSerif-32" transform="translate(286.279297 0)"/>
      </g>
     </g>
    </g>
    <g id="ytick_3">
     <g id="line2d_10">
      <path d="M 58.401875 120.448836 
L 275.730875 120.448836 
" clip-path="url(#pdcd5889731)" style="fill: none; stroke: #b0b0b0; stroke-opacity: 0.2; stroke-width: 0.8; stroke-linecap: square"/>
     </g>
     <g id="line2d_11">
      <g>
       <use xlink:href="#mabeaafa1ce" x="58.401875" y="120.448836" style="stroke: #000000; stroke-width: 0.8"/>
      </g>
     </g>
     <g id="text_8">
      <!-- 0.0004 -->
      <g transform="translate(19.910313 123.868133) scale(0.09 -0.09)">
       <use xlink:href="#DejaVuSerif-30"/>
       <use xlink:href="#DejaVuSerif-2e" transform="translate(63.623047 0)"/>
       <use xlink:href="#DejaVuSerif-30" transform="translate(95.410156 0)"/>
       <use xlink:href="#DejaVuSerif-30" transform="translate(159.033203 0)"/>
       <use xlink:href="#DejaVuSerif-30" transform="translate(222.65625 0)"/>
       <use xlink:href="#DejaVuSerif-34" transform="translate(286.279297 0)"/>
      </g>
     </g>
    </g>
    <g id="ytick_4">
     <g id="line2d_12">
      <path d="M 58.401875 87.134036 
L 275.730875 87.134036 
" clip-path="url(#pdcd5889731)" style="fill: none; stroke: #b0b0b0; stroke-opacity: 0.2; stroke-width: 0.8; stroke-linecap: square"/>
     </g>
     <g id="line2d_13">
      <g>
       <use xlink:href="#mabeaafa1ce" x="58.401875" y="87.134036" style="stroke: #000000; stroke-width: 0.8"/>
      </g>
     </g>
     <g id="text_9">
      <!-- 0.0006 -->
      <g transform="translate(19.910313 90.553333) scale(0.09 -0.09)">
       <defs>
        <path id="DejaVuSerif-36" d="M 2094 219 
Q 2534 219 2771 542 
Q 3009 866 3009 1472 
Q 3009 2078 2771 2401 
Q 2534 2725 2094 2725 
Q 1647 2725 1412 2412 
Q 1178 2100 1178 1509 
Q 1178 888 1415 553 
Q 1653 219 2094 219 
z
M 1075 2569 
Q 1288 2803 1556 2918 
Q 1825 3034 2163 3034 
Q 2859 3034 3264 2615 
Q 3669 2197 3669 1472 
Q 3669 763 3233 336 
Q 2797 -91 2069 -91 
Q 1278 -91 853 498 
Q 428 1088 428 2181 
Q 428 3406 931 4078 
Q 1434 4750 2350 4750 
Q 2597 4750 2869 4703 
Q 3141 4656 3425 4563 
L 3425 3794 
L 3072 3794 
Q 3034 4109 2831 4275 
Q 2628 4441 2284 4441 
Q 1678 4441 1381 3981 
Q 1084 3522 1075 2569 
z
" transform="scale(0.015625)"/>
       </defs>
       <use xlink:href="#DejaVuSerif-30"/>
       <use xlink:href="#DejaVuSerif-2e" transform="translate(63.623047 0)"/>
       <use xlink:href="#DejaVuSerif-30" transform="translate(95.410156 0)"/>
       <use xlink:href="#DejaVuSerif-30" transform="translate(159.033203 0)"/>
       <use xlink:href="#DejaVuSerif-30" transform="translate(222.65625 0)"/>
       <use xlink:href="#DejaVuSerif-36" transform="translate(286.279297 0)"/>
      </g>
     </g>
    </g>
    <g id="ytick_5">
     <g id="line2d_14">
      <path d="M 58.401875 53.819235 
L 275.730875 53.819235 
" clip-path="url(#pdcd5889731)" style="fill: none; stroke: #b0b0b0; stroke-opacity: 0.2; stroke-width: 0.8; stroke-linecap: square"/>
     </g>
     <g id="line2d_15">
      <g>
       <use xlink:href="#mabeaafa1ce" x="58.401875" y="53.819235" style="stroke: #000000; stroke-width: 0.8"/>
      </g>
     </g>
     <g id="text_10">
      <!-- 0.0008 -->
      <g transform="translate(19.910313 57.238532) scale(0.09 -0.09)">
       <defs>
        <path id="DejaVuSerif-38" d="M 2981 1275 
Q 2981 1775 2732 2051 
Q 2484 2328 2034 2328 
Q 1584 2328 1336 2051 
Q 1088 1775 1088 1275 
Q 1088 772 1336 495 
Q 1584 219 2034 219 
Q 2484 219 2732 495 
Q 2981 772 2981 1275 
z
M 2853 3541 
Q 2853 3966 2637 4203 
Q 2422 4441 2034 4441 
Q 1650 4441 1433 4203 
Q 1216 3966 1216 3541 
Q 1216 3113 1433 2875 
Q 1650 2638 2034 2638 
Q 2422 2638 2637 2875 
Q 2853 3113 2853 3541 
z
M 2516 2484 
Q 3047 2413 3344 2092 
Q 3641 1772 3641 1275 
Q 3641 619 3225 264 
Q 2809 -91 2034 -91 
Q 1263 -91 845 264 
Q 428 619 428 1275 
Q 428 1772 725 2092 
Q 1022 2413 1556 2484 
Q 1084 2569 832 2842 
Q 581 3116 581 3541 
Q 581 4103 968 4426 
Q 1356 4750 2034 4750 
Q 2713 4750 3100 4426 
Q 3488 4103 3488 3541 
Q 3488 3116 3236 2842 
Q 2984 2569 2516 2484 
z
" transform="scale(0.015625)"/>
       </defs>
       <use xlink:href="#DejaVuSerif-30"/>
       <use xlink:href="#DejaVuSerif-2e" transform="translate(63.623047 0)"/>
       <use xlink:href="#DejaVuSerif-30" transform="translate(95.410156 0)"/>
       <use xlink:href="#DejaVuSerif-30" transform="translate(159.033203 0)"/>
       <use xlink:href="#DejaVuSerif-30" transform="translate(222.65625 0)"/>
       <use xlink:href="#DejaVuSerif-38" transform="translate(286.279297 0)"/>
      </g>
     </g>
    </g>
    <g id="text_11">
     <!-- loss descent  $L_0 - L_{\mathrm{final}}$ -->
     <g transform="translate(14.038594 154.338437) rotate(-90) scale(0.09 -0.09)">
      <defs>
       <path id="DejaVuSerif-6c" d="M 1313 331 
L 1856 331 
L 1856 0 
L 184 0 
L 184 331 
L 738 331 
L 738 4531 
L 184 4531 
L 184 4863 
L 1313 4863 
L 1313 331 
z
" transform="scale(0.015625)"/>
       <path id="DejaVuSerif-6f" d="M 1925 219 
Q 2388 219 2623 584 
Q 2859 950 2859 1663 
Q 2859 2375 2623 2739 
Q 2388 3103 1925 3103 
Q 1463 3103 1227 2739 
Q 991 2375 991 1663 
Q 991 950 1228 584 
Q 1466 219 1925 219 
z
M 1925 -91 
Q 1200 -91 759 389 
Q 319 869 319 1663 
Q 319 2456 758 2934 
Q 1197 3413 1925 3413 
Q 2653 3413 3092 2934 
Q 3531 2456 3531 1663 
Q 3531 869 3092 389 
Q 2653 -91 1925 -91 
z
" transform="scale(0.015625)"/>
       <path id="DejaVuSerif-63" d="M 3291 997 
Q 3169 466 2822 187 
Q 2475 -91 1925 -91 
Q 1200 -91 759 389 
Q 319 869 319 1663 
Q 319 2459 759 2936 
Q 1200 3413 1925 3413 
Q 2241 3413 2553 3339 
Q 2866 3266 3181 3116 
L 3181 2266 
L 2847 2266 
Q 2781 2703 2561 2903 
Q 2341 3103 1931 3103 
Q 1466 3103 1228 2742 
Q 991 2381 991 1663 
Q 991 944 1227 581 
Q 1463 219 1931 219 
Q 2303 219 2525 412 
Q 2747 606 2828 997 
L 3291 997 
z
" transform="scale(0.015625)"/>
       <path id="DejaVuSerif-6e" d="M 263 0 
L 263 331 
L 781 331 
L 781 2988 
L 231 2988 
L 231 3322 
L 1356 3322 
L 1356 2731 
Q 1516 3069 1770 3241 
Q 2025 3413 2363 3413 
Q 2913 3413 3172 3097 
Q 3431 2781 3431 2113 
L 3431 331 
L 3944 331 
L 3944 0 
L 2356 0 
L 2356 331 
L 2853 331 
L 2853 1931 
Q 2853 2541 2703 2767 
Q 2553 2994 2175 2994 
Q 1775 2994 1565 2701 
Q 1356 2409 1356 1850 
L 1356 331 
L 1856 331 
L 1856 0 
L 263 0 
z
" transform="scale(0.015625)"/>
       <path id="DejaVuSerif-74" d="M 691 2988 
L 184 2988 
L 184 3322 
L 691 3322 
L 691 4353 
L 1269 4353 
L 1269 3322 
L 2350 3322 
L 2350 2988 
L 1269 2988 
L 1269 878 
Q 1269 456 1350 337 
Q 1431 219 1650 219 
Q 1875 219 1978 351 
Q 2081 484 2088 781 
L 2522 781 
Q 2497 328 2275 118 
Q 2053 -91 1600 -91 
Q 1103 -91 897 129 
Q 691 350 691 878 
L 691 2988 
z
" transform="scale(0.015625)"/>
       <path id="DejaVuSans-Oblique-4c" d="M 1075 4666 
L 1709 4666 
L 909 525 
L 3181 525 
L 3078 0 
L 172 0 
L 1075 4666 
z
" transform="scale(0.015625)"/>
       <path id="DejaVuSans-30" d="M 2034 4250 
Q 1547 4250 1301 3770 
Q 1056 3291 1056 2328 
Q 1056 1369 1301 889 
Q 1547 409 2034 409 
Q 2525 409 2770 889 
Q 3016 1369 3016 2328 
Q 3016 3291 2770 3770 
Q 2525 4250 2034 4250 
z
M 2034 4750 
Q 2819 4750 3233 4129 
Q 3647 3509 3647 2328 
Q 3647 1150 3233 529 
Q 2819 -91 2034 -91 
Q 1250 -91 836 529 
Q 422 1150 422 2328 
Q 422 3509 836 4129 
Q 1250 4750 2034 4750 
z
" transform="scale(0.015625)"/>
       <path id="DejaVuSans-2212" d="M 678 2272 
L 4684 2272 
L 4684 1741 
L 678 1741 
L 678 2272 
z
" transform="scale(0.015625)"/>
       <path id="DejaVuSans-66" d="M 2375 4863 
L 2375 4384 
L 1825 4384 
Q 1516 4384 1395 4259 
Q 1275 4134 1275 3809 
L 1275 3500 
L 2222 3500 
L 2222 3053 
L 1275 3053 
L 1275 0 
L 697 0 
L 697 3053 
L 147 3053 
L 147 3500 
L 697 3500 
L 697 3744 
Q 697 4328 969 4595 
Q 1241 4863 1831 4863 
L 2375 4863 
z
" transform="scale(0.015625)"/>
       <path id="DejaVuSans-69" d="M 603 3500 
L 1178 3500 
L 1178 0 
L 603 0 
L 603 3500 
z
M 603 4863 
L 1178 4863 
L 1178 4134 
L 603 4134 
L 603 4863 
z
" transform="scale(0.015625)"/>
       <path id="DejaVuSans-6e" d="M 3513 2113 
L 3513 0 
L 2938 0 
L 2938 2094 
Q 2938 2591 2744 2837 
Q 2550 3084 2163 3084 
Q 1697 3084 1428 2787 
Q 1159 2491 1159 1978 
L 1159 0 
L 581 0 
L 581 3500 
L 1159 3500 
L 1159 2956 
Q 1366 3272 1645 3428 
Q 1925 3584 2291 3584 
Q 2894 3584 3203 3211 
Q 3513 2838 3513 2113 
z
" transform="scale(0.015625)"/>
       <path id="DejaVuSans-61" d="M 2194 1759 
Q 1497 1759 1228 1600 
Q 959 1441 959 1056 
Q 959 750 1161 570 
Q 1363 391 1709 391 
Q 2188 391 2477 730 
Q 2766 1069 2766 1631 
L 2766 1759 
L 2194 1759 
z
M 3341 1997 
L 3341 0 
L 2766 0 
L 2766 531 
Q 2569 213 2275 61 
Q 1981 -91 1556 -91 
Q 1019 -91 701 211 
Q 384 513 384 1019 
Q 384 1609 779 1909 
Q 1175 2209 1959 2209 
L 2766 2209 
L 2766 2266 
Q 2766 2663 2505 2880 
Q 2244 3097 1772 3097 
Q 1472 3097 1187 3025 
Q 903 2953 641 2809 
L 641 3341 
Q 956 3463 1253 3523 
Q 1550 3584 1831 3584 
Q 2591 3584 2966 3190 
Q 3341 2797 3341 1997 
z
" transform="scale(0.015625)"/>
       <path id="DejaVuSans-6c" d="M 603 4863 
L 1178 4863 
L 1178 0 
L 603 0 
L 603 4863 
z
" transform="scale(0.015625)"/>
      </defs>
      <use xlink:href="#DejaVuSerif-6c" transform="translate(0 0.015625)"/>
      <use xlink:href="#DejaVuSerif-6f" transform="translate(31.982422 0.015625)"/>
      <use xlink:href="#DejaVuSerif-73" transform="translate(92.1875 0.015625)"/>
      <use xlink:href="#DejaVuSerif-73" transform="translate(143.505859 0.015625)"/>
      <use xlink:href="#DejaVuSerif-20" transform="translate(194.824219 0.015625)"/>
      <use xlink:href="#DejaVuSerif-64" transform="translate(226.611328 0.015625)"/>
      <use xlink:href="#DejaVuSerif-65" transform="translate(290.625 0.015625)"/>
      <use xlink:href="#DejaVuSerif-73" transform="translate(349.804688 0.015625)"/>
      <use xlink:href="#DejaVuSerif-63" transform="translate(401.123047 0.015625)"/>
      <use xlink:href="#DejaVuSerif-65" transform="translate(457.128906 0.015625)"/>
      <use xlink:href="#DejaVuSerif-6e" transform="translate(516.308594 0.015625)"/>
      <use xlink:href="#DejaVuSerif-74" transform="translate(580.712891 0.015625)"/>
      <use xlink:href="#DejaVuSerif-20" transform="translate(620.898438 0.015625)"/>
      <use xlink:href="#DejaVuSerif-20" transform="translate(652.685547 0.015625)"/>
      <use xlink:href="#DejaVuSans-Oblique-4c" transform="translate(684.472656 0.015625)"/>
      <use xlink:href="#DejaVuSans-30" transform="translate(740.185547 -16.390625) scale(0.7)"/>
      <use xlink:href="#DejaVuSans-2212" transform="translate(806.938477 0.015625)"/>
      <use xlink:href="#DejaVuSans-Oblique-4c" transform="translate(910.209961 0.015625)"/>
      <use xlink:href="#DejaVuSans-66" transform="translate(965.922852 -16.390625) scale(0.7)"/>
      <use xlink:href="#DejaVuSans-69" transform="translate(990.566406 -16.390625) scale(0.7)"/>
      <use xlink:href="#DejaVuSans-6e" transform="translate(1010.014648 -16.390625) scale(0.7)"/>
      <use xlink:href="#DejaVuSans-61" transform="translate(1054.379883 -16.390625) scale(0.7)"/>
      <use xlink:href="#DejaVuSans-6c" transform="translate(1097.275391 -16.390625) scale(0.7)"/>
     </g>
    </g>
   </g>
   <g id="line2d_16">
    <path d="M 58.401875 104.907482 
L 275.730875 104.907482 
" clip-path="url(#pdcd5889731)" style="fill: none; stroke-dasharray: 3.7,1.6; stroke-dashoffset: 0; stroke: #cc2b2b"/>
   </g>
   <g id="patch_8">
    <path d="M 58.401875 187.078437 
L 58.401875 20.798437 
" style="fill: none; stroke: #000000; stroke-width: 0.8; stroke-linejoin: miter; stroke-linecap: square"/>
   </g>
   <g id="patch_9">
    <path d="M 58.401875 187.078437 
L 275.730875 187.078437 
" style="fill: none; stroke: #000000; stroke-width: 0.8; stroke-linejoin: miter; stroke-linecap: square"/>
   </g>
   <g id="text_12">
    <!-- Per-seed loss descent (baseline 1.7632) -->
    <g transform="translate(66.909344 14.798437) scale(0.1 -0.1)">
     <defs>
      <path id="DejaVuSerif-50" d="M 1581 2375 
L 2406 2375 
Q 2872 2375 3115 2626 
Q 3359 2878 3359 3353 
Q 3359 3831 3115 4081 
Q 2872 4331 2406 4331 
L 1581 4331 
L 1581 2375 
z
M 353 0 
L 353 331 
L 947 331 
L 947 4331 
L 353 4331 
L 353 4666 
L 2559 4666 
Q 3259 4666 3668 4311 
Q 4078 3956 4078 3353 
Q 4078 2753 3668 2397 
Q 3259 2041 2559 2041 
L 1581 2041 
L 1581 331 
L 2303 331 
L 2303 0 
L 353 0 
z
" transform="scale(0.015625)"/>
      <path id="DejaVuSerif-72" d="M 3059 3328 
L 3059 2497 
L 2728 2497 
Q 2713 2744 2591 2866 
Q 2469 2988 2234 2988 
Q 1809 2988 1582 2694 
Q 1356 2400 1356 1850 
L 1356 331 
L 2022 331 
L 2022 0 
L 263 0 
L 263 331 
L 781 331 
L 781 2994 
L 231 2994 
L 231 3322 
L 1356 3322 
L 1356 2731 
Q 1525 3078 1790 3245 
Q 2056 3413 2438 3413 
Q 2578 3413 2733 3391 
Q 2888 3369 3059 3328 
z
" transform="scale(0.015625)"/>
      <path id="DejaVuSerif-2d" d="M 281 1959 
L 1881 1959 
L 1881 1472 
L 281 1472 
L 281 1959 
z
" transform="scale(0.015625)"/>
      <path id="DejaVuSerif-28" d="M 2041 -997 
Q 1281 -656 893 83 
Q 506 822 506 1931 
Q 506 3044 893 3783 
Q 1281 4522 2041 4863 
L 2041 4556 
Q 1559 4225 1350 3623 
Q 1141 3022 1141 1931 
Q 1141 844 1350 242 
Q 1559 -359 2041 -691 
L 2041 -997 
z
" transform="scale(0.015625)"/>
      <path id="DejaVuSerif-62" d="M 738 331 
L 738 4531 
L 184 4531 
L 184 4863 
L 1313 4863 
L 1313 2803 
Q 1481 3116 1742 3264 
Q 2003 3413 2388 3413 
Q 3000 3413 3387 2928 
Q 3775 2444 3775 1663 
Q 3775 881 3387 395 
Q 3000 -91 2388 -91 
Q 2003 -91 1742 57 
Q 1481 206 1313 519 
L 1313 0 
L 184 0 
L 184 331 
L 738 331 
z
M 1313 1497 
Q 1313 897 1542 583 
Q 1772 269 2209 269 
Q 2650 269 2876 622 
Q 3103 975 3103 1663 
Q 3103 2353 2876 2703 
Q 2650 3053 2209 3053 
Q 1772 3053 1542 2737 
Q 1313 2422 1313 1825 
L 1313 1497 
z
" transform="scale(0.015625)"/>
      <path id="DejaVuSerif-61" d="M 2547 1044 
L 2547 1747 
L 1806 1747 
Q 1378 1747 1168 1562 
Q 959 1378 959 997 
Q 959 650 1171 447 
Q 1384 244 1747 244 
Q 2106 244 2326 466 
Q 2547 688 2547 1044 
z
M 3122 2075 
L 3122 331 
L 3634 331 
L 3634 0 
L 2547 0 
L 2547 359 
Q 2356 128 2106 18 
Q 1856 -91 1522 -91 
Q 969 -91 644 203 
Q 319 497 319 997 
Q 319 1513 691 1797 
Q 1063 2081 1741 2081 
L 2547 2081 
L 2547 2309 
Q 2547 2688 2317 2895 
Q 2088 3103 1672 3103 
Q 1328 3103 1125 2947 
Q 922 2791 872 2484 
L 575 2484 
L 575 3156 
Q 875 3284 1158 3348 
Q 1441 3413 1709 3413 
Q 2400 3413 2761 3070 
Q 3122 2728 3122 2075 
z
" transform="scale(0.015625)"/>
      <path id="DejaVuSerif-69" d="M 622 4353 
Q 622 4497 726 4603 
Q 831 4709 978 4709 
Q 1122 4709 1226 4603 
Q 1331 4497 1331 4353 
Q 1331 4206 1228 4103 
Q 1125 4000 978 4000 
Q 831 4000 726 4103 
Q 622 4206 622 4353 
z
M 1356 331 
L 1900 331 
L 1900 0 
L 231 0 
L 231 331 
L 781 331 
L 781 2988 
L 231 2988 
L 231 3322 
L 1356 3322 
L 1356 331 
z
" transform="scale(0.015625)"/>
      <path id="DejaVuSerif-37" d="M 3609 4347 
L 1784 0 
L 1319 0 
L 3059 4153 
L 903 4153 
L 903 3578 
L 538 3578 
L 538 4666 
L 3609 4666 
L 3609 4347 
z
" transform="scale(0.015625)"/>
      <path id="DejaVuSerif-29" d="M 453 -997 
L 453 -691 
Q 934 -359 1145 242 
Q 1356 844 1356 1931 
Q 1356 3022 1145 3623 
Q 934 4225 453 4556 
L 453 4863 
Q 1216 4522 1603 3783 
Q 1991 3044 1991 1931 
Q 1991 822 1603 83 
Q 1216 -656 453 -997 
z
" transform="scale(0.015625)"/>
     </defs>
     <use xlink:href="#DejaVuSerif-50"/>
     <use xlink:href="#DejaVuSerif-65" transform="translate(62.785156 0)"/>
     <use xlink:href="#DejaVuSerif-72" transform="translate(121.964844 0)"/>
     <use xlink:href="#DejaVuSerif-2d" transform="translate(169.767578 0)"/>
     <use xlink:href="#DejaVuSerif-73" transform="translate(203.556641 0)"/>
     <use xlink:href="#DejaVuSerif-65" transform="translate(254.875 0)"/>
     <use xlink:href="#DejaVuSerif-65" transform="translate(314.054688 0)"/>
     <use xlink:href="#DejaVuSerif-64" transform="translate(373.234375 0)"/>
     <use xlink:href="#DejaVuSerif-20" transform="translate(437.248047 0)"/>
     <use xlink:href="#DejaVuSerif-6c" transform="translate(469.035156 0)"/>
     <use xlink:href="#DejaVuSerif-6f" transform="translate(501.017578 0)"/>
     <use xlink:href="#DejaVuSerif-73" transform="translate(561.222656 0)"/>
     <use xlink:href="#DejaVuSerif-73" transform="translate(612.541016 0)"/>
     <use xlink:href="#DejaVuSerif-20" transform="translate(663.859375 0)"/>
     <use xlink:href="#DejaVuSerif-64" transform="translate(695.646484 0)"/>
     <use xlink:href="#DejaVuSerif-65" transform="translate(759.660156 0)"/>
     <use xlink:href="#DejaVuSerif-73" transform="translate(818.839844 0)"/>
     <use xlink:href="#DejaVuSerif-63" transform="translate(870.158203 0)"/>
     <use xlink:href="#DejaVuSerif-65" transform="translate(926.164062 0)"/>
     <use xlink:href="#DejaVuSerif-6e" transform="translate(985.34375 0)"/>
     <use xlink:href="#DejaVuSerif-74" transform="translate(1049.748047 0)"/>
     <use xlink:href="#DejaVuSerif-20" transform="translate(1089.933594 0)"/>
     <use xlink:href="#DejaVuSerif-28" transform="translate(1121.720703 0)"/>
     <use xlink:href="#DejaVuSerif-62" transform="translate(1160.734375 0)"/>
     <use xlink:href="#DejaVuSerif-61" transform="translate(1224.748047 0)"/>
     <use xlink:href="#DejaVuSerif-73" transform="translate(1284.367188 0)"/>
     <use xlink:href="#DejaVuSerif-65" transform="translate(1335.685547 0)"/>
     <use xlink:href="#DejaVuSerif-6c" transform="translate(1394.865234 0)"/>
     <use xlink:href="#DejaVuSerif-69" transform="translate(1426.847656 0)"/>
     <use xlink:href="#DejaVuSerif-6e" transform="translate(1458.830078 0)"/>
     <use xlink:href="#DejaVuSerif-65" transform="translate(1523.234375 0)"/>
     <use xlink:href="#DejaVuSerif-20" transform="translate(1582.414062 0)"/>
     <use xlink:href="#DejaVuSerif-31" transform="translate(1614.201172 0)"/>
     <use xlink:href="#DejaVuSerif-2e" transform="translate(1677.824219 0)"/>
     <use xlink:href="#DejaVuSerif-37" transform="translate(1709.611328 0)"/>
     <use xlink:href="#DejaVuSerif-36" transform="translate(1773.234375 0)"/>
     <use xlink:href="#DejaVuSerif-33" transform="translate(1836.857422 0)"/>
     <use xlink:href="#DejaVuSerif-32" transform="translate(1900.480469 0)"/>
     <use xlink:href="#DejaVuSerif-29" transform="translate(1964.103516 0)"/>
    </g>
   </g>
   <g id="legend_1">
    <g id="line2d_17">
     <path d="M 195.559 29.967344 
L 202.559 29.967344 
L 209.559 29.967344 
" style="fill: none; stroke-dasharray: 3.7,1.6; stroke-dashoffset: 0; stroke: #cc2b2b"/>
    </g>
    <g id="text_13">
     <!-- mean = 0.0005 -->
     <g transform="translate(215.159 32.417344) scale(0.07 -0.07)">
      <defs>
       <path id="DejaVuSerif-6d" d="M 3316 2675 
Q 3481 3041 3739 3227 
Q 3997 3413 4341 3413 
Q 4863 3413 5119 3089 
Q 5375 2766 5375 2113 
L 5375 331 
L 5894 331 
L 5894 0 
L 4300 0 
L 4300 331 
L 4800 331 
L 4800 2047 
Q 4800 2556 4650 2772 
Q 4500 2988 4153 2988 
Q 3769 2988 3567 2697 
Q 3366 2406 3366 1850 
L 3366 331 
L 3866 331 
L 3866 0 
L 2291 0 
L 2291 331 
L 2791 331 
L 2791 2069 
Q 2791 2566 2641 2777 
Q 2491 2988 2144 2988 
Q 1759 2988 1557 2697 
Q 1356 2406 1356 1850 
L 1356 331 
L 1856 331 
L 1856 0 
L 263 0 
L 263 331 
L 781 331 
L 781 2994 
L 231 2994 
L 231 3322 
L 1356 3322 
L 1356 2731 
Q 1516 3063 1762 3238 
Q 2009 3413 2322 3413 
Q 2709 3413 2968 3220 
Q 3228 3028 3316 2675 
z
" transform="scale(0.015625)"/>
       <path id="DejaVuSerif-3d" d="M 678 2894 
L 4684 2894 
L 4684 2394 
L 678 2394 
L 678 2894 
z
M 678 1619 
L 4684 1619 
L 4684 1119 
L 678 1119 
L 678 1619 
z
" transform="scale(0.015625)"/>
      </defs>
      <use xlink:href="#DejaVuSerif-6d"/>
      <use xlink:href="#DejaVuSerif-65" transform="translate(94.824219 0)"/>
      <use xlink:href="#DejaVuSerif-61" transform="translate(154.003906 0)"/>
      <use xlink:href="#DejaVuSerif-6e" transform="translate(213.623047 0)"/>
      <use xlink:href="#DejaVuSerif-20" transform="translate(278.027344 0)"/>
      <use xlink:href="#DejaVuSerif-3d" transform="translate(309.814453 0)"/>
      <use xlink:href="#DejaVuSerif-20" transform="translate(393.603516 0)"/>
      <use xlink:href="#DejaVuSerif-30" transform="translate(425.390625 0)"/>
      <use xlink:href="#DejaVuSerif-2e" transform="translate(489.013672 0)"/>
      <use xlink:href="#DejaVuSerif-30" transform="translate(520.800781 0)"/>
      <use xlink:href="#DejaVuSerif-30" transform="translate(584.423828 0)"/>
      <use xlink:href="#DejaVuSerif-30" transform="translate(648.046875 0)"/>
      <use xlink:href="#DejaVuSerif-35" transform="translate(711.669922 0)"/>
     </g>
    </g>
   </g>
  </g>
  <g id="axes_2">
   <g id="patch_10">
    <path d="M 317.330875 187.078437 
L 534.659875 187.078437 
L 534.659875 20.798437 
L 317.330875 20.798437 
z
" style="fill: #ffffff"/>
   </g>
   <g id="patch_11">
    <path d="M 327.209466 187.078437 
L 352.979703 187.078437 
L 352.979703 38.031939 
L 327.209466 38.031939 
z
" clip-path="url(#p248dc51edc)" style="fill: #cc2b2b; opacity: 0.85"/>
   </g>
   <g id="patch_12">
    <path d="M 370.159861 187.078437 
L 395.930098 187.078437 
L 395.930098 38.031939 
L 370.159861 38.031939 
z
" clip-path="url(#p248dc51edc)" style="fill: #cc2b2b; opacity: 0.85"/>
   </g>
   <g id="patch_13">
    <path d="M 413.110256 187.078437 
L 438.880494 187.078437 
L 438.880494 38.031939 
L 413.110256 38.031939 
z
" clip-path="url(#p248dc51edc)" style="fill: #cc2b2b; opacity: 0.85"/>
   </g>
   <g id="patch_14">
    <path d="M 456.060652 187.078437 
L 481.830889 187.078437 
L 481.830889 38.031939 
L 456.060652 38.031939 
z
" clip-path="url(#p248dc51edc)" style="fill: #cc2b2b; opacity: 0.85"/>
   </g>
   <g id="patch_15">
    <path d="M 499.011047 187.078437 
L 524.781284 187.078437 
L 524.781284 28.716533 
L 499.011047 28.716533 
z
" clip-path="url(#p248dc51edc)" style="fill: #cc2b2b; opacity: 0.85"/>
   </g>
   <g id="matplotlib.axis_3">
    <g id="xtick_6">
     <g id="line2d_18">
      <g>
       <use xlink:href="#md8f9617538" x="340.094584" y="187.078437" style="stroke: #000000; stroke-width: 0.8"/>
      </g>
     </g>
     <g id="text_14">
      <!-- seed 1 -->
      <g transform="translate(325.284663 200.917031) scale(0.09 -0.09)">
       <use xlink:href="#DejaVuSerif-73"/>
       <use xlink:href="#DejaVuSerif-65" transform="translate(51.318359 0)"/>
       <use xlink:href="#DejaVuSerif-65" transform="translate(110.498047 0)"/>
       <use xlink:href="#DejaVuSerif-64" transform="translate(169.677734 0)"/>
       <use xlink:href="#DejaVuSerif-20" transform="translate(233.691406 0)"/>
       <use xlink:href="#DejaVuSerif-31" transform="translate(265.478516 0)"/>
      </g>
     </g>
    </g>
    <g id="xtick_7">
     <g id="line2d_19">
      <g>
       <use xlink:href="#md8f9617538" x="383.04498" y="187.078437" style="stroke: #000000; stroke-width: 0.8"/>
      </g>
     </g>
     <g id="text_15">
      <!-- seed 2 -->
      <g transform="translate(368.235058 200.917031) scale(0.09 -0.09)">
       <use xlink:href="#DejaVuSerif-73"/>
       <use xlink:href="#DejaVuSerif-65" transform="translate(51.318359 0)"/>
       <use xlink:href="#DejaVuSerif-65" transform="translate(110.498047 0)"/>
       <use xlink:href="#DejaVuSerif-64" transform="translate(169.677734 0)"/>
       <use xlink:href="#DejaVuSerif-20" transform="translate(233.691406 0)"/>
       <use xlink:href="#DejaVuSerif-32" transform="translate(265.478516 0)"/>
      </g>
     </g>
    </g>
    <g id="xtick_8">
     <g id="line2d_20">
      <g>
       <use xlink:href="#md8f9617538" x="425.995375" y="187.078437" style="stroke: #000000; stroke-width: 0.8"/>
      </g>
     </g>
     <g id="text_16">
      <!-- seed 3 -->
      <g transform="translate(411.185453 200.917031) scale(0.09 -0.09)">
       <use xlink:href="#DejaVuSerif-73"/>
       <use xlink:href="#DejaVuSerif-65" transform="translate(51.318359 0)"/>
       <use xlink:href="#DejaVuSerif-65" transform="translate(110.498047 0)"/>
       <use xlink:href="#DejaVuSerif-64" transform="translate(169.677734 0)"/>
       <use xlink:href="#DejaVuSerif-20" transform="translate(233.691406 0)"/>
       <use xlink:href="#DejaVuSerif-33" transform="translate(265.478516 0)"/>
      </g>
     </g>
    </g>
    <g id="xtick_9">
     <g id="line2d_21">
      <g>
       <use xlink:href="#md8f9617538" x="468.94577" y="187.078437" style="stroke: #000000; stroke-width: 0.8"/>
      </g>
     </g>
     <g id="text_17">
      <!-- seed 4 -->
      <g transform="translate(454.135848 200.917031) scale(0.09 -0.09)">
       <use xlink:href="#DejaVuSerif-73"/>
       <use xlink:href="#DejaVuSerif-65" transform="translate(51.318359 0)"/>
       <use xlink:href="#DejaVuSerif-65" transform="translate(110.498047 0)"/>
       <use xlink:href="#DejaVuSerif-64" transform="translate(169.677734 0)"/>
       <use xlink:href="#DejaVuSerif-20" transform="translate(233.691406 0)"/>
       <use xlink:href="#DejaVuSerif-34" transform="translate(265.478516 0)"/>
      </g>
     </g>
    </g>
    <g id="xtick_10">
     <g id="line2d_22">
      <g>
       <use xlink:href="#md8f9617538" x="511.896166" y="187.078437" style="stroke: #000000; stroke-width: 0.8"/>
      </g>
     </g>
     <g id="text_18">
      <!-- seed 5 -->
      <g transform="translate(497.086244 200.917031) scale(0.09 -0.09)">
       <use xlink:href="#DejaVuSerif-73"/>
       <use xlink:href="#DejaVuSerif-65" transform="translate(51.318359 0)"/>
       <use xlink:href="#DejaVuSerif-65" transform="translate(110.498047 0)"/>
       <use xlink:href="#DejaVuSerif-64" transform="translate(169.677734 0)"/>
       <use xlink:href="#DejaVuSerif-20" transform="translate(233.691406 0)"/>
       <use xlink:href="#DejaVuSerif-35" transform="translate(265.478516 0)"/>
      </g>
     </g>
    </g>
   </g>
   <g id="matplotlib.axis_4">
    <g id="ytick_6">
     <g id="line2d_23">
      <g>
       <use xlink:href="#mabeaafa1ce" x="317.330875" y="187.078437" style="stroke: #000000; stroke-width: 0.8"/>
      </g>
     </g>
     <g id="text_19">
      <!-- 0 -->
      <g style="fill: #cc2b2b" transform="translate(304.604625 190.497734) scale(0.09 -0.09)">
       <use xlink:href="#DejaVuSerif-30"/>
      </g>
     </g>
    </g>
    <g id="ytick_7">
     <g id="line2d_24">
      <g>
       <use xlink:href="#mabeaafa1ce" x="317.330875" y="168.447625" style="stroke: #000000; stroke-width: 0.8"/>
      </g>
     </g>
     <g id="text_20">
      <!-- 2 -->
      <g style="fill: #cc2b2b" transform="translate(304.604625 171.866922) scale(0.09 -0.09)">
       <use xlink:href="#DejaVuSerif-32"/>
      </g>
     </g>
    </g>
    <g id="ytick_8">
     <g id="line2d_25">
      <g>
       <use xlink:href="#mabeaafa1ce" x="317.330875" y="149.816813" style="stroke: #000000; stroke-width: 0.8"/>
      </g>
     </g>
     <g id="text_21">
      <!-- 4 -->
      <g style="fill: #cc2b2b" transform="translate(304.604625 153.23611) scale(0.09 -0.09)">
       <use xlink:href="#DejaVuSerif-34"/>
      </g>
     </g>
    </g>
    <g id="ytick_9">
     <g id="line2d_26">
      <g>
       <use xlink:href="#mabeaafa1ce" x="317.330875" y="131.186001" style="stroke: #000000; stroke-width: 0.8"/>
      </g>
     </g>
     <g id="text_22">
      <!-- 6 -->
      <g style="fill: #cc2b2b" transform="translate(304.604625 134.605297) scale(0.09 -0.09)">
       <use xlink:href="#DejaVuSerif-36"/>
      </g>
     </g>
    </g>
    <g id="ytick_10">
     <g id="line2d_27">
      <g>
       <use xlink:href="#mabeaafa1ce" x="317.330875" y="112.555188" style="stroke: #000000; stroke-width: 0.8"/>
      </g>
     </g>
     <g id="text_23">
      <!-- 8 -->
      <g style="fill: #cc2b2b" transform="translate(304.604625 115.974485) scale(0.09 -0.09)">
       <use xlink:href="#DejaVuSerif-38"/>
      </g>
     </g>
    </g>
    <g id="ytick_11">
     <g id="line2d_28">
      <g>
       <use xlink:href="#mabeaafa1ce" x="317.330875" y="93.924376" style="stroke: #000000; stroke-width: 0.8"/>
      </g>
     </g>
     <g id="text_24">
      <!-- 10 -->
      <g style="fill: #cc2b2b" transform="translate(298.878375 97.343673) scale(0.09 -0.09)">
       <use xlink:href="#DejaVuSerif-31"/>
       <use xlink:href="#DejaVuSerif-30" transform="translate(63.623047 0)"/>
      </g>
     </g>
    </g>
    <g id="ytick_12">
     <g id="line2d_29">
      <g>
       <use xlink:href="#mabeaafa1ce" x="317.330875" y="75.293564" style="stroke: #000000; stroke-width: 0.8"/>
      </g>
     </g>
     <g id="text_25">
      <!-- 12 -->
      <g style="fill: #cc2b2b" transform="translate(298.878375 78.71286) scale(0.09 -0.09)">
       <use xlink:href="#DejaVuSerif-31"/>
       <use xlink:href="#DejaVuSerif-32" transform="translate(63.623047 0)"/>
      </g>
     </g>
    </g>
    <g id="ytick_13">
     <g id="line2d_30">
      <g>
       <use xlink:href="#mabeaafa1ce" x="317.330875" y="56.662751" style="stroke: #000000; stroke-width: 0.8"/>
      </g>
     </g>
     <g id="text_26">
      <!-- 14 -->
      <g style="fill: #cc2b2b" transform="translate(298.878375 60.082048) scale(0.09 -0.09)">
       <use xlink:href="#DejaVuSerif-31"/>
       <use xlink:href="#DejaVuSerif-34" transform="translate(63.623047 0)"/>
      </g>
     </g>
    </g>
    <g id="ytick_14">
     <g id="line2d_31">
      <g>
       <use xlink:href="#mabeaafa1ce" x="317.330875" y="38.031939" style="stroke: #000000; stroke-width: 0.8"/>
      </g>
     </g>
     <g id="text_27">
      <!-- 16 -->
      <g style="fill: #cc2b2b" transform="translate(298.878375 41.451236) scale(0.09 -0.09)">
       <use xlink:href="#DejaVuSerif-31"/>
       <use xlink:href="#DejaVuSerif-36" transform="translate(63.623047 0)"/>
      </g>
     </g>
    </g>
    <g id="text_28">
     <!-- attacker wins (all flagged fraud) -->
     <g style="fill: #cc2b2b" transform="translate(292.878688 177.647031) rotate(-90) scale(0.09 -0.09)">
      <defs>
       <path id="DejaVuSerif-6b" d="M 1831 0 
L 219 0 
L 219 331 
L 738 331 
L 738 4531 
L 184 4531 
L 184 4863 
L 1313 4863 
L 1313 1697 
L 2713 2988 
L 2234 2988 
L 2234 3322 
L 3738 3322 
L 3738 2988 
L 3169 2988 
L 2181 2075 
L 3444 331 
L 3922 331 
L 3922 0 
L 2284 0 
L 2284 331 
L 2759 331 
L 1766 1697 
L 1313 1275 
L 1313 331 
L 1831 331 
L 1831 0 
z
" transform="scale(0.015625)"/>
       <path id="DejaVuSerif-77" d="M 3072 3322 
L 3922 728 
L 4672 2988 
L 4191 2988 
L 4191 3322 
L 5394 3322 
L 5394 2988 
L 5025 2988 
L 4038 0 
L 3559 0 
L 2741 2484 
L 1919 0 
L 1459 0 
L 475 2988 
L 103 2988 
L 103 3322 
L 1606 3322 
L 1606 2988 
L 1069 2988 
L 1813 728 
L 2669 3322 
L 3072 3322 
z
" transform="scale(0.015625)"/>
       <path id="DejaVuSerif-66" d="M 2753 4078 
L 2450 4078 
Q 2447 4313 2317 4434 
Q 2188 4556 1941 4556 
Q 1619 4556 1487 4379 
Q 1356 4203 1356 3750 
L 1356 3322 
L 2284 3322 
L 2284 2988 
L 1356 2988 
L 1356 331 
L 2094 331 
L 2094 0 
L 231 0 
L 231 331 
L 781 331 
L 781 2988 
L 231 2988 
L 231 3322 
L 781 3322 
L 781 3738 
Q 781 4294 1070 4578 
Q 1359 4863 1919 4863 
Q 2128 4863 2337 4825 
Q 2547 4788 2753 4709 
L 2753 4078 
z
" transform="scale(0.015625)"/>
       <path id="DejaVuSerif-67" d="M 3359 2988 
L 3359 72 
Q 3359 -644 2965 -1033 
Q 2572 -1422 1844 -1422 
Q 1516 -1422 1216 -1362 
Q 916 -1303 641 -1184 
L 641 -488 
L 941 -488 
Q 997 -813 1206 -963 
Q 1416 -1113 1806 -1113 
Q 2313 -1113 2548 -827 
Q 2784 -541 2784 72 
L 2784 519 
Q 2616 206 2355 57 
Q 2094 -91 1709 -91 
Q 1097 -91 708 395 
Q 319 881 319 1663 
Q 319 2444 706 2928 
Q 1094 3413 1709 3413 
Q 2094 3413 2355 3264 
Q 2616 3116 2784 2803 
L 2784 3322 
L 3909 3322 
L 3909 2988 
L 3359 2988 
z
M 2784 1825 
Q 2784 2422 2554 2737 
Q 2325 3053 1888 3053 
Q 1444 3053 1217 2703 
Q 991 2353 991 1663 
Q 991 975 1217 622 
Q 1444 269 1888 269 
Q 2325 269 2554 583 
Q 2784 897 2784 1497 
L 2784 1825 
z
" transform="scale(0.015625)"/>
       <path id="DejaVuSerif-75" d="M 2266 3322 
L 3341 3322 
L 3341 331 
L 3884 331 
L 3884 0 
L 2766 0 
L 2766 588 
Q 2606 256 2353 82 
Q 2100 -91 1766 -91 
Q 1213 -91 952 223 
Q 691 538 691 1209 
L 691 2988 
L 172 2988 
L 172 3322 
L 1269 3322 
L 1269 1388 
Q 1269 781 1417 556 
Q 1566 331 1947 331 
Q 2347 331 2556 625 
Q 2766 919 2766 1478 
L 2766 2988 
L 2266 2988 
L 2266 3322 
z
" transform="scale(0.015625)"/>
      </defs>
      <use xlink:href="#DejaVuSerif-61"/>
      <use xlink:href="#DejaVuSerif-74" transform="translate(59.619141 0)"/>
      <use xlink:href="#DejaVuSerif-74" transform="translate(99.804688 0)"/>
      <use xlink:href="#DejaVuSerif-61" transform="translate(139.990234 0)"/>
      <use xlink:href="#DejaVuSerif-63" transform="translate(199.609375 0)"/>
      <use xlink:href="#DejaVuSerif-6b" transform="translate(255.615234 0)"/>
      <use xlink:href="#DejaVuSerif-65" transform="translate(316.210938 0)"/>
      <use xlink:href="#DejaVuSerif-72" transform="translate(375.390625 0)"/>
      <use xlink:href="#DejaVuSerif-20" transform="translate(423.193359 0)"/>
      <use xlink:href="#DejaVuSerif-77" transform="translate(454.980469 0)"/>
      <use xlink:href="#DejaVuSerif-69" transform="translate(540.576172 0)"/>
      <use xlink:href="#DejaVuSerif-6e" transform="translate(572.558594 0)"/>
      <use xlink:href="#DejaVuSerif-73" transform="translate(636.962891 0)"/>
      <use xlink:href="#DejaVuSerif-20" transform="translate(688.28125 0)"/>
      <use xlink:href="#DejaVuSerif-28" transform="translate(720.068359 0)"/>
      <use xlink:href="#DejaVuSerif-61" transform="translate(759.082031 0)"/>
      <use xlink:href="#DejaVuSerif-6c" transform="translate(818.701172 0)"/>
      <use xlink:href="#DejaVuSerif-6c" transform="translate(850.683594 0)"/>
      <use xlink:href="#DejaVuSerif-20" transform="translate(882.666016 0)"/>
      <use xlink:href="#DejaVuSerif-66" transform="translate(914.453125 0)"/>
      <use xlink:href="#DejaVuSerif-6c" transform="translate(951.464844 0)"/>
      <use xlink:href="#DejaVuSerif-61" transform="translate(983.447266 0)"/>
      <use xlink:href="#DejaVuSerif-67" transform="translate(1043.066406 0)"/>
      <use xlink:href="#DejaVuSerif-67" transform="translate(1107.080078 0)"/>
      <use xlink:href="#DejaVuSerif-65" transform="translate(1171.09375 0)"/>
      <use xlink:href="#DejaVuSerif-64" transform="translate(1230.273438 0)"/>
      <use xlink:href="#DejaVuSerif-20" transform="translate(1294.287109 0)"/>
      <use xlink:href="#DejaVuSerif-66" transform="translate(1326.074219 0)"/>
      <use xlink:href="#DejaVuSerif-72" transform="translate(1363.085938 0)"/>
      <use xlink:href="#DejaVuSerif-61" transform="translate(1410.888672 0)"/>
      <use xlink:href="#DejaVuSerif-75" transform="translate(1470.507812 0)"/>
      <use xlink:href="#DejaVuSerif-64" transform="translate(1534.912109 0)"/>
      <use xlink:href="#DejaVuSerif-29" transform="translate(1598.925781 0)"/>
     </g>
    </g>
   </g>
   <g id="patch_16">
    <path d="M 317.330875 187.078437 
L 317.330875 20.798437 
" style="fill: none; stroke: #000000; stroke-width: 0.8; stroke-linejoin: miter; stroke-linecap: square"/>
   </g>
   <g id="patch_17">
    <path d="M 317.330875 187.078437 
L 534.659875 187.078437 
" style="fill: none; stroke: #000000; stroke-width: 0.8; stroke-linejoin: miter; stroke-linecap: square"/>
   </g>
   <g id="text_29">
    <!-- Byzantine + adaptation per seed -->
    <g transform="translate(342.896938 14.798437) scale(0.1 -0.1)">
     <defs>
      <path id="DejaVuSerif-42" d="M 1581 331 
L 2516 331 
Q 3078 331 3337 575 
Q 3597 819 3597 1350 
Q 3597 1878 3339 2120 
Q 3081 2363 2516 2363 
L 1581 2363 
L 1581 331 
z
M 1581 2694 
L 2375 2694 
Q 2888 2694 3123 2891 
Q 3359 3088 3359 3513 
Q 3359 3941 3123 4136 
Q 2888 4331 2375 4331 
L 1581 4331 
L 1581 2694 
z
M 353 0 
L 353 331 
L 947 331 
L 947 4331 
L 353 4331 
L 353 4666 
L 2656 4666 
Q 3363 4666 3720 4377 
Q 4078 4088 4078 3513 
Q 4078 3097 3829 2850 
Q 3581 2603 3103 2547 
Q 3697 2472 4005 2167 
Q 4313 1863 4313 1350 
Q 4313 656 3875 328 
Q 3438 0 2509 0 
L 353 0 
z
" transform="scale(0.015625)"/>
      <path id="DejaVuSerif-79" d="M 1381 -609 
L 1600 -56 
L 359 2988 
L -19 2988 
L -19 3322 
L 1509 3322 
L 1509 2988 
L 978 2988 
L 1913 703 
L 2847 2988 
L 2350 2988 
L 2350 3322 
L 3597 3322 
L 3597 2988 
L 3225 2988 
L 1703 -750 
Q 1547 -1138 1356 -1280 
Q 1166 -1422 819 -1422 
Q 672 -1422 517 -1397 
Q 363 -1372 206 -1325 
L 206 -691 
L 500 -691 
Q 519 -903 608 -995 
Q 697 -1088 884 -1088 
Q 1056 -1088 1161 -992 
Q 1266 -897 1381 -609 
z
" transform="scale(0.015625)"/>
      <path id="DejaVuSerif-7a" d="M 256 0 
L 256 269 
L 2338 2988 
L 691 2988 
L 691 2413 
L 359 2413 
L 359 3322 
L 3078 3322 
L 3078 3053 
L 997 331 
L 2803 331 
L 2803 934 
L 3138 934 
L 3138 0 
L 256 0 
z
" transform="scale(0.015625)"/>
      <path id="DejaVuSerif-2b" d="M 2931 4013 
L 2931 2259 
L 4684 2259 
L 4684 1753 
L 2931 1753 
L 2931 0 
L 2431 0 
L 2431 1753 
L 678 1753 
L 678 2259 
L 2431 2259 
L 2431 4013 
L 2931 4013 
z
" transform="scale(0.015625)"/>
      <path id="DejaVuSerif-70" d="M 1313 1825 
L 1313 1497 
Q 1313 897 1542 583 
Q 1772 269 2209 269 
Q 2650 269 2876 622 
Q 3103 975 3103 1663 
Q 3103 2353 2876 2703 
Q 2650 3053 2209 3053 
Q 1772 3053 1542 2737 
Q 1313 2422 1313 1825 
z
M 738 2988 
L 184 2988 
L 184 3322 
L 1313 3322 
L 1313 2803 
Q 1481 3116 1742 3264 
Q 2003 3413 2388 3413 
Q 3000 3413 3387 2928 
Q 3775 2444 3775 1663 
Q 3775 881 3387 395 
Q 3000 -91 2388 -91 
Q 2003 -91 1742 57 
Q 1481 206 1313 519 
L 1313 -997 
L 1856 -997 
L 1856 -1331 
L 184 -1331 
L 184 -997 
L 738 -997 
L 738 2988 
z
" transform="scale(0.015625)"/>
     </defs>
     <use xlink:href="#DejaVuSerif-42"/>
     <use xlink:href="#DejaVuSerif-79" transform="translate(73.486328 0)"/>
     <use xlink:href="#DejaVuSerif-7a" transform="translate(129.980469 0)"/>
     <use xlink:href="#DejaVuSerif-61" transform="translate(182.666016 0)"/>
     <use xlink:href="#DejaVuSerif-6e" transform="translate(242.285156 0)"/>
     <use xlink:href="#DejaVuSerif-74" transform="translate(306.689453 0)"/>
     <use xlink:href="#DejaVuSerif-69" transform="translate(346.875 0)"/>
     <use xlink:href="#DejaVuSerif-6e" transform="translate(378.857422 0)"/>
     <use xlink:href="#DejaVuSerif-65" transform="translate(443.261719 0)"/>
     <use xlink:href="#DejaVuSerif-20" transform="translate(502.441406 0)"/>
     <use xlink:href="#DejaVuSerif-2b" transform="translate(534.228516 0)"/>
     <use xlink:href="#DejaVuSerif-20" transform="translate(618.017578 0)"/>
     <use xlink:href="#DejaVuSerif-61" transform="translate(649.804688 0)"/>
     <use xlink:href="#DejaVuSerif-64" transform="translate(709.423828 0)"/>
     <use xlink:href="#DejaVuSerif-61" transform="translate(773.4375 0)"/>
     <use xlink:href="#DejaVuSerif-70" transform="translate(833.056641 0)"/>
     <use xlink:href="#DejaVuSerif-74" transform="translate(897.070312 0)"/>
     <use xlink:href="#DejaVuSerif-61" transform="translate(937.255859 0)"/>
     <use xlink:href="#DejaVuSerif-74" transform="translate(996.875 0)"/>
     <use xlink:href="#DejaVuSerif-69" transform="translate(1037.060547 0)"/>
     <use xlink:href="#DejaVuSerif-6f" transform="translate(1069.042969 0)"/>
     <use xlink:href="#DejaVuSerif-6e" transform="translate(1129.248047 0)"/>
     <use xlink:href="#DejaVuSerif-20" transform="translate(1193.652344 0)"/>
     <use xlink:href="#DejaVuSerif-70" transform="translate(1225.439453 0)"/>
     <use xlink:href="#DejaVuSerif-65" transform="translate(1289.453125 0)"/>
     <use xlink:href="#DejaVuSerif-72" transform="translate(1348.632812 0)"/>
     <use xlink:href="#DejaVuSerif-20" transform="translate(1396.435547 0)"/>
     <use xlink:href="#DejaVuSerif-73" transform="translate(1428.222656 0)"/>
     <use xlink:href="#DejaVuSerif-65" transform="translate(1479.541016 0)"/>
     <use xlink:href="#DejaVuSerif-65" transform="translate(1538.720703 0)"/>
     <use xlink:href="#DejaVuSerif-64" transform="translate(1597.900391 0)"/>
    </g>
   </g>
  </g>
  <g id="axes_3">
   <g id="matplotlib.axis_5">
    <g id="ytick_15">
     <g id="line2d_32">
      <defs>
       <path id="m4b32d29c3f" d="M 0 0 
L 3.5 0 
" style="stroke: #000000; stroke-width: 0.8"/>
      </defs>
      <g>
       <use xlink:href="#m4b32d29c3f" x="534.659875" y="179.520256" style="stroke: #000000; stroke-width: 0.8"/>
      </g>
     </g>
     <g id="text_30">
      <!-- 2 -->
      <g style="fill: #2c4c7a" transform="translate(541.659875 182.939553) scale(0.09 -0.09)">
       <use xlink:href="#DejaVuSerif-32"/>
      </g>
     </g>
    </g>
    <g id="ytick_16">
     <g id="line2d_33">
      <g>
       <use xlink:href="#m4b32d29c3f" x="534.659875" y="154.326316" style="stroke: #000000; stroke-width: 0.8"/>
      </g>
     </g>
     <g id="text_31">
      <!-- 3 -->
      <g style="fill: #2c4c7a" transform="translate(541.659875 157.745613) scale(0.09 -0.09)">
       <use xlink:href="#DejaVuSerif-33"/>
      </g>
     </g>
    </g>
    <g id="ytick_17">
     <g id="line2d_34">
      <g>
       <use xlink:href="#m4b32d29c3f" x="534.659875" y="129.132377" style="stroke: #000000; stroke-width: 0.8"/>
      </g>
     </g>
     <g id="text_32">
      <!-- 4 -->
      <g style="fill: #2c4c7a" transform="translate(541.659875 132.551674) scale(0.09 -0.09)">
       <use xlink:href="#DejaVuSerif-34"/>
      </g>
     </g>
    </g>
    <g id="ytick_18">
     <g id="line2d_35">
      <g>
       <use xlink:href="#m4b32d29c3f" x="534.659875" y="103.938437" style="stroke: #000000; stroke-width: 0.8"/>
      </g>
     </g>
     <g id="text_33">
      <!-- 5 -->
      <g style="fill: #2c4c7a" transform="translate(541.659875 107.357734) scale(0.09 -0.09)">
       <use xlink:href="#DejaVuSerif-35"/>
      </g>
     </g>
    </g>
    <g id="ytick_19">
     <g id="line2d_36">
      <g>
       <use xlink:href="#m4b32d29c3f" x="534.659875" y="78.744498" style="stroke: #000000; stroke-width: 0.8"/>
      </g>
     </g>
     <g id="text_34">
      <!-- 6 -->
      <g style="fill: #2c4c7a" transform="translate(541.659875 82.163795) scale(0.09 -0.09)">
       <use xlink:href="#DejaVuSerif-36"/>
      </g>
     </g>
    </g>
    <g id="ytick_20">
     <g id="line2d_37">
      <g>
       <use xlink:href="#m4b32d29c3f" x="534.659875" y="53.550559" style="stroke: #000000; stroke-width: 0.8"/>
      </g>
     </g>
     <g id="text_35">
      <!-- 7 -->
      <g style="fill: #2c4c7a" transform="translate(541.659875 56.969856) scale(0.09 -0.09)">
       <use xlink:href="#DejaVuSerif-37"/>
      </g>
     </g>
    </g>
    <g id="ytick_21">
     <g id="line2d_38">
      <g>
       <use xlink:href="#m4b32d29c3f" x="534.659875" y="28.356619" style="stroke: #000000; stroke-width: 0.8"/>
      </g>
     </g>
     <g id="text_36">
      <!-- 8 -->
      <g style="fill: #2c4c7a" transform="translate(541.659875 31.775916) scale(0.09 -0.09)">
       <use xlink:href="#DejaVuSerif-38"/>
      </g>
     </g>
    </g>
    <g id="text_37">
     <!-- η grow events -->
     <g style="fill: #2c4c7a" transform="translate(558.09675 135.972109) rotate(-90) scale(0.09 -0.09)">
      <defs>
       <path id="DejaVuSerif-3b7" d="M 781 0 
L 781 2988 
L 231 2988 
L 231 3322 
L 1356 3322 
L 1356 2731 
Q 1516 3069 1770 3241 
Q 2025 3413 2363 3413 
Q 2913 3413 3172 3097 
Q 3431 2781 3431 2113 
L 3431 -1331 
L 2853 -1331 
L 2853 1931 
Q 2853 2541 2703 2767 
Q 2553 2994 2175 2994 
Q 1775 2994 1565 2701 
Q 1356 2409 1356 1850 
L 1356 0 
L 781 0 
z
" transform="scale(0.015625)"/>
       <path id="DejaVuSerif-76" d="M 1581 0 
L 359 2988 
L -19 2988 
L -19 3322 
L 1509 3322 
L 1509 2988 
L 978 2988 
L 1913 703 
L 2847 2988 
L 2350 2988 
L 2350 3322 
L 3597 3322 
L 3597 2988 
L 3225 2988 
L 2003 0 
L 1581 0 
z
" transform="scale(0.015625)"/>
      </defs>
      <use xlink:href="#DejaVuSerif-3b7"/>
      <use xlink:href="#DejaVuSerif-20" transform="translate(59.912109 0)"/>
      <use xlink:href="#DejaVuSerif-67" transform="translate(91.699219 0)"/>
      <use xlink:href="#DejaVuSerif-72" transform="translate(155.712891 0)"/>
      <use xlink:href="#DejaVuSerif-6f" transform="translate(203.515625 0)"/>
      <use xlink:href="#DejaVuSerif-77" transform="translate(263.720703 0)"/>
      <use xlink:href="#DejaVuSerif-20" transform="translate(349.316406 0)"/>
      <use xlink:href="#DejaVuSerif-65" transform="translate(381.103516 0)"/>
      <use xlink:href="#DejaVuSerif-76" transform="translate(440.283203 0)"/>
      <use xlink:href="#DejaVuSerif-65" transform="translate(496.777344 0)"/>
      <use xlink:href="#DejaVuSerif-6e" transform="translate(555.957031 0)"/>
      <use xlink:href="#DejaVuSerif-74" transform="translate(620.361328 0)"/>
      <use xlink:href="#DejaVuSerif-73" transform="translate(660.546875 0)"/>
     </g>
    </g>
   </g>
   <g id="line2d_39">
    <path d="M 340.094584 28.356619 
L 383.04498 53.550559 
L 425.995375 179.520256 
L 468.94577 103.938437 
L 511.896166 154.326316 
" clip-path="url(#p248dc51edc)" style="fill: none; stroke: #2c4c7a; stroke-width: 1.5; stroke-linecap: square"/>
    <defs>
     <path id="mdb716802f2" d="M 0 3 
C 0.795609 3 1.55874 2.683901 2.12132 2.12132 
C 2.683901 1.55874 3 0.795609 3 0 
C 3 -0.795609 2.683901 -1.55874 2.12132 -2.12132 
C 1.55874 -2.683901 0.795609 -3 0 -3 
C -0.795609 -3 -1.55874 -2.683901 -2.12132 -2.12132 
C -2.683901 -1.55874 -3 -0.795609 -3 0 
C -3 0.795609 -2.683901 1.55874 -2.12132 2.12132 
C -1.55874 2.683901 -0.795609 3 0 3 
z
" style="stroke: #2c4c7a"/>
    </defs>
    <g clip-path="url(#p248dc51edc)">
     <use xlink:href="#mdb716802f2" x="340.094584" y="28.356619" style="fill: #2c4c7a; stroke: #2c4c7a"/>
     <use xlink:href="#mdb716802f2" x="383.04498" y="53.550559" style="fill: #2c4c7a; stroke: #2c4c7a"/>
     <use xlink:href="#mdb716802f2" x="425.995375" y="179.520256" style="fill: #2c4c7a; stroke: #2c4c7a"/>
     <use xlink:href="#mdb716802f2" x="468.94577" y="103.938437" style="fill: #2c4c7a; stroke: #2c4c7a"/>
     <use xlink:href="#mdb716802f2" x="511.896166" y="154.326316" style="fill: #2c4c7a; stroke: #2c4c7a"/>
    </g>
   </g>
   <g id="patch_18">
    <path d="M 317.330875 187.078437 
L 317.330875 20.798437 
" style="fill: none; stroke: #000000; stroke-width: 0.8; stroke-linejoin: miter; stroke-linecap: square"/>
   </g>
   <g id="patch_19">
    <path d="M 317.330875 187.078437 
L 534.659875 187.078437 
" style="fill: none; stroke: #000000; stroke-width: 0.8; stroke-linejoin: miter; stroke-linecap: square"/>
   </g>
  </g>
 </g>
 <defs>
  <clipPath id="pdcd5889731">
   <rect x="58.401875" y="20.798437" width="217.329" height="166.28"/>
  </clipPath>
  <clipPath id="p248dc51edc">
   <rect x="317.330875" y="20.798437" width="217.329" height="166.28"/>
  </clipPath>
 </defs>
</svg>
